<svg width="25" height="25" viewBox="0 0 25 25" fill="none" xmlns="http://www.w3.org/2000/svg">
<path d="M24.371 21.4082L19.3128 12.7364C18.9254 12.072 18.2076 11.6591 17.4391 11.6591C16.6707 11.6591 15.9528 12.072 15.5654 12.7364L10.5072 21.4082C9.67082 22.8392 10.7038 24.6673 12.3809 24.6673H22.4974C24.1749 24.6673 25.2074 22.8378 24.371 21.4082ZM17.4391 21.7768C17.0402 21.7768 16.7164 21.453 16.7164 21.0541C16.7164 20.6552 17.0402 20.3314 17.4391 20.3314C17.838 20.3314 18.1618 20.6547 18.1618 21.0541C18.1618 21.4535 17.838 21.7768 17.4391 21.7768ZM18.1618 18.1632C18.1618 18.5626 17.8385 18.8859 17.4391 18.8859C17.0397 18.8859 16.7164 18.5626 16.7164 18.1632V16.7182C16.7164 16.3183 17.0397 15.9955 17.4391 15.9955C17.8385 15.9955 18.1618 16.3183 18.1618 16.7182V18.1632Z" fill="#FFB117"/>
<path d="M13.6971 4.56622L14.0907 3.88396C14.2902 3.5385 14.1717 3.09667 13.8262 2.89671C13.4803 2.69627 13.0376 2.81577 12.8386 3.16171L12.4459 3.84205C11.5349 3.4113 10.5429 3.141 9.49018 3.05282V1.44547H10.2129C10.6123 1.44547 10.9355 1.12216 10.9355 0.722733C10.9355 0.323302 10.6123 0 10.2129 0H7.32264C6.92324 0 6.59996 0.323302 6.59996 0.722733C6.59996 1.12216 6.92324 1.44547 7.32264 1.44547H8.04483V3.02391C6.98972 3.11112 5.99098 3.38913 5.07704 3.82036L4.69643 3.16171C4.49601 2.81577 4.05373 2.69627 3.70926 2.89671C3.36333 3.09667 3.24482 3.5385 3.44476 3.88396L3.82344 4.54021C1.57254 6.10661 0 8.70893 0 11.6591C0 16.4489 3.97857 20.3314 8.76751 20.3314C9.00936 20.3314 9.2464 20.3146 9.48296 20.2953L14.3172 12.008C14.9411 10.9388 16.081 10.2758 17.3115 10.231C16.9212 7.88116 15.5703 5.87485 13.6971 4.56622ZM12.8559 8.59281L9.27868 12.1703C8.99635 12.4527 8.53914 12.4527 8.25681 12.1703C7.97449 11.888 7.97449 11.4307 8.25681 11.1484L11.2805 8.124C10.5516 7.60315 9.68145 7.32321 8.76751 7.32321C6.37689 7.32321 4.43193 9.26832 4.43193 11.6591C4.43193 12.0586 4.10865 12.3819 3.70926 12.3819C3.30986 12.3819 2.98658 12.0586 2.98658 11.6591C2.98658 8.47139 5.58002 5.87774 8.76751 5.87774C10.3126 5.87774 11.7642 6.47906 12.8559 7.57086C13.1378 7.85321 13.1378 8.31046 12.8559 8.59281Z" fill="#F56961"/>
</svg>
