<svg width="20" height="20" viewBox="0 0 20 20" fill="none" xmlns="http://www.w3.org/2000/svg">
<path fill-rule="evenodd" clip-rule="evenodd" d="M8.49902 2.64943C8.49902 3.57069 8.49763 4.33731 8.5791 4.94337C8.66352 5.57106 8.84928 6.13836 9.30469 6.59376C9.75998 7.04882 10.3267 7.23495 10.9541 7.31935C11.5603 7.40082 12.3275 7.39943 13.249 7.39943H13.8975V8.05958C12.5293 8.33845 11.5 9.54946 11.5 11C11.5 11.7747 11.7963 12.4785 12.2783 13.0108C11.0015 13.123 10 14.194 10 15.5C10 15.833 10.0509 16.1671 10.1543 16.4902C9.84251 16.4948 9.50651 16.4971 9.14746 16.4971H6.75C5.82861 16.4971 5.06119 16.4985 4.45508 16.417C3.82762 16.3326 3.26093 16.1467 2.80566 15.6914C2.35031 15.236 2.1645 14.6687 2.08008 14.041C1.99867 13.435 2 12.6682 2 11.7471V6.75001C2 5.8287 1.99863 5.06121 2.08008 4.45509C2.1645 3.82773 2.35063 3.26093 2.80566 2.80568C3.26089 2.35052 3.8277 2.16454 4.45508 2.08009C5.06119 1.99861 5.82863 2.00001 6.75 2.00001C6.83802 2.00001 8.41538 1.99998 8.49902 2.00001V2.64943ZM6 11.0977C5.58579 11.0977 5.25002 11.4335 5.25 11.8477C5.25 12.2619 5.58578 12.5977 6 12.5977H8.59961C9.01353 12.5973 9.34961 12.2617 9.34961 11.8477C9.34959 11.4337 9.01351 11.098 8.59961 11.0977H6ZM6 8.49806C5.58582 8.49806 5.25006 8.8339 5.25 9.24806C5.25 9.66227 5.58578 9.99806 6 9.99806H9.89941C10.3133 9.99766 10.6494 9.66202 10.6494 9.24806C10.6494 8.83415 10.3132 8.49846 9.89941 8.49806H6ZM10.1221 2.209C10.6595 2.4316 11.0658 2.85686 11.6006 3.39161L12.5068 4.29689C13.0416 4.83164 13.4659 5.23804 13.6885 5.7754C13.7054 5.81624 13.7191 5.85796 13.7334 5.89943H13.249C12.2852 5.89943 11.6373 5.89696 11.1543 5.83204C10.6935 5.77007 10.4955 5.66332 10.3652 5.53322C10.2349 5.40292 10.1275 5.20445 10.0654 4.74318C10.0006 4.2603 9.99902 3.61278 9.99902 2.64943V2.16408C10.0402 2.17828 10.0815 2.19221 10.1221 2.209Z" fill="#436CFB"/>
<path d="M14.5 18C17 18 18 16.7452 18 15.5C18 14.6716 17.3284 14 16.5 14H12.5C11.6716 14 11 14.6716 11 15.5C11 16.7499 12 18 14.5 18Z" fill="#FFB117"/>
<path d="M14.5 13C15.6046 13 16.5 12.1046 16.5 11C16.5 9.89542 15.6046 9 14.5 9C13.3954 9 12.5 9.89542 12.5 11C12.5 12.1046 13.3954 13 14.5 13Z" fill="#FFB117"/>
</svg>
