<svg width="29" height="25" viewBox="0 0 29 25" fill="none" xmlns="http://www.w3.org/2000/svg">
<rect x="1.78867" y="4.81512" width="20" height="7.2" fill="#FAB3B2"/>
<path d="M20.7638 0H3.09132C1.38264 0 0 1.38868 0 3.09736V12.7638C0 13.6211 0.344151 14.394 0.90566 14.9555C1.46113 15.517 2.23396 15.8611 3.09132 15.8611C3.2966 15.8611 3.45359 16.0423 3.4234 16.2536L2.90415 19.5864C2.84981 19.9125 3.23623 20.1057 3.46566 19.8762L7.46868 15.9577C7.53509 15.8974 7.61358 15.8611 7.70415 15.8611H20.7638C22.4725 15.8611 23.8611 14.4785 23.8611 12.7638V3.09736C23.8611 1.38868 22.4725 0 20.7638 0ZM7.07623 7.66792L6.21887 8.50113C6.14642 8.57359 6.11019 8.68226 6.1283 8.78491L6.33359 9.96226C6.37585 10.2158 6.10415 10.4151 5.87472 10.2943L4.81208 9.73887C4.76748 9.71508 4.71771 9.70264 4.66717 9.70264C4.61663 9.70264 4.56686 9.71508 4.52226 9.73887L3.45359 10.2943C3.22415 10.4151 2.95245 10.2219 3.00075 9.96226L3.2 8.78491C3.20839 8.73474 3.20453 8.68329 3.18877 8.63494C3.173 8.58658 3.14578 8.54275 3.10943 8.50717L2.25208 7.66792C2.20984 7.6264 2.17998 7.57395 2.16584 7.51643C2.1517 7.45891 2.15383 7.39859 2.172 7.34221C2.19016 7.28584 2.22365 7.23562 2.26871 7.19718C2.31377 7.15874 2.36863 7.13358 2.42717 7.12453L3.61057 6.95547C3.71321 6.9434 3.80377 6.87698 3.85208 6.78642L4.3834 5.70566C4.49811 5.47019 4.83623 5.47019 4.95094 5.70566L5.47623 6.78642C5.52453 6.87698 5.61509 6.9434 5.71774 6.95547L6.90113 7.12453C7.16076 7.16679 7.2634 7.48075 7.07623 7.66792ZM14.3396 7.66792L13.4823 8.50113C13.4098 8.57359 13.3736 8.68226 13.3917 8.78491L13.597 9.96226C13.6392 10.2158 13.3736 10.4151 13.1381 10.2943L12.0755 9.73887C12.0309 9.71508 11.9811 9.70264 11.9306 9.70264C11.88 9.70264 11.8303 9.71508 11.7857 9.73887L10.723 10.2943C10.4875 10.4151 10.2219 10.2219 10.2642 9.96226L10.4634 8.78491C10.4718 8.73474 10.4679 8.68329 10.4522 8.63494C10.4364 8.58658 10.4092 8.54275 10.3728 8.50717L9.51547 7.66792C9.47324 7.6264 9.44338 7.57395 9.42924 7.51643C9.41509 7.45891 9.41723 7.39859 9.43539 7.34221C9.45356 7.28584 9.48704 7.23562 9.5321 7.19718C9.57717 7.15874 9.63203 7.13358 9.69057 7.12453L10.874 6.95547C10.9766 6.9434 11.0672 6.87698 11.1155 6.78642L11.6468 5.70566C11.7615 5.47019 12.0996 5.47019 12.2143 5.70566L12.7396 6.78642C12.7879 6.87698 12.8785 6.9434 12.9811 6.95547L14.1645 7.12453C14.4242 7.16679 14.5268 7.48075 14.3396 7.66792ZM21.603 7.66792L20.7457 8.50113C20.6732 8.57359 20.643 8.68226 20.6611 8.78491L20.8604 9.96226C20.9087 10.2158 20.637 10.4151 20.4015 10.2943L19.3449 9.73887C19.2992 9.71506 19.2485 9.70263 19.197 9.70263C19.1455 9.70263 19.0947 9.71506 19.0491 9.73887L17.9864 10.2943C17.757 10.4151 17.4853 10.2219 17.5275 9.96226L17.7268 8.78491C17.7352 8.73474 17.7313 8.68329 17.7156 8.63494C17.6998 8.58658 17.6726 8.54275 17.6362 8.50717L16.7789 7.66792C16.7366 7.6264 16.7068 7.57395 16.6926 7.51643C16.6785 7.45891 16.6806 7.39859 16.6988 7.34221C16.717 7.28584 16.7504 7.23562 16.7955 7.19718C16.8406 7.15874 16.8954 7.13358 16.954 7.12453L18.1434 6.95547C18.246 6.9434 18.3306 6.87698 18.3789 6.78642L18.9102 5.70566C19.0309 5.47019 19.363 5.47019 19.4777 5.70566L20.0091 6.78642C20.031 6.83209 20.064 6.87151 20.1052 6.90106C20.1463 6.9306 20.1942 6.94931 20.2445 6.95547L21.4279 7.12453C21.6875 7.16679 21.7902 7.48075 21.603 7.66792Z" fill="#F56961"/>
<path d="M28.3774 7.14869V16.8211C28.3774 17.6785 28.0272 18.4513 27.4717 19.0128C26.9102 19.5683 26.1313 19.9125 25.28 19.9125C25.0747 19.9125 24.9177 20.0996 24.954 20.3049L25.4672 23.6377C25.5215 23.9638 25.1351 24.157 24.9057 23.9336L20.9026 20.0091C20.8378 19.9504 20.7545 19.9162 20.6672 19.9125H7.60754C6.91924 19.9125 6.28528 19.6891 5.77207 19.3087L8.06037 17.0687H20.7638C23.1366 17.0687 25.0687 15.1366 25.0687 12.7638V4.05133H25.28C26.9887 4.05133 28.3774 5.43397 28.3774 7.14869Z" fill="#FFB117"/>
</svg>
