<svg width="28" height="20" viewBox="0 0 28 20" fill="none" xmlns="http://www.w3.org/2000/svg">
<path d="M4.75 7.5C6.82107 7.5 8.5 5.82107 8.5 3.75C8.5 1.67893 6.82107 0 4.75 0C2.67893 0 1 1.67893 1 3.75C1 5.82107 2.67893 7.5 4.75 7.5Z" fill="#ACCAFF"/>
<path d="M7.95898 7.25192C8.65461 7.88938 9.14869 8.72346 9.37012 9.65036C8.65908 10.246 8.0814 10.9846 7.6748 11.8183C7.26818 12.6522 7.04121 13.563 7.00977 14.4902C6.92346 14.4987 6.8367 14.5018 6.75 14.5H2.75C2.38879 14.5002 2.03103 14.4291 1.69727 14.291C1.36355 14.1529 1.06007 13.9507 0.804688 13.6953C0.549301 13.4399 0.347088 13.1364 0.208984 12.8027C0.0708771 12.4689 -0.000262985 12.1112 0 11.75V10.75C0.000906819 9.58678 0.428774 8.46452 1.20215 7.59567C1.30931 7.47529 1.42221 7.36094 1.54004 7.2529C1.54404 7.94192 2.97966 8.49996 4.75 8.49997C6.52119 8.49997 7.95633 7.9414 7.95898 7.25192ZM19.54 7.24997C19.54 7.94032 20.9772 8.49996 22.75 8.49997C24.5195 8.49997 25.9536 7.94245 25.959 7.25388C26.2495 7.52044 26.5098 7.82073 26.7275 8.15427C27.2315 8.92614 27.4998 9.82816 27.5 10.75V11.75C27.5003 12.1112 27.4291 12.4689 27.291 12.8027C27.1529 13.1364 26.9507 13.4399 26.6953 13.6953C26.4399 13.9507 26.1365 14.1529 25.8027 14.291C25.469 14.4291 25.1112 14.5002 24.75 14.5H20.75C20.6633 14.5018 20.5765 14.4987 20.4902 14.4902C20.4584 13.5642 20.2328 12.6548 19.8281 11.8213C19.4234 10.9876 18.8478 10.2481 18.1396 9.65036C18.3226 8.84105 18.7202 8.09796 19.2871 7.49802L19.54 7.24997Z" fill="#5894FF"/>
<path d="M22.75 7.5C24.8211 7.5 26.5 5.82107 26.5 3.75C26.5 1.67893 24.8211 0 22.75 0C20.6789 0 19 1.67893 19 3.75C19 5.82107 20.6789 7.5 22.75 7.5Z" fill="#ACCAFF"/>
<path d="M14.752 9.08917C15.9046 9.29319 16.9764 9.84497 17.8154 10.6839C18.8938 11.7622 19.5 13.2253 19.5 14.7503V16.7503C19.5002 17.1114 19.4291 17.4694 19.291 17.803C19.1529 18.1367 18.9506 18.4403 18.6953 18.6956C18.4399 18.951 18.1364 19.1532 17.8027 19.2913C17.469 19.4294 17.1112 19.5006 16.75 19.5003H10.75C10.3888 19.5006 10.031 19.4294 9.69727 19.2913C9.36357 19.1532 9.06007 18.951 8.80469 18.6956C8.54937 18.4403 8.34709 18.1367 8.20898 17.803C8.07092 17.4694 7.99978 17.1114 8 16.7503V14.7503C8 13.2253 8.60624 11.7622 9.68457 10.6839C10.5234 9.8452 11.5948 9.29333 12.7471 9.08917C11.854 9.24904 11.0071 9.62102 10.2803 10.18C11.236 11.0304 12.4707 11.5003 13.75 11.5003C15.0293 11.5003 16.264 11.0304 17.2197 10.18C16.4926 9.62083 15.6453 9.24894 14.752 9.08917Z" fill="#FFB117"/>
<path d="M13.75 10.5C16.0972 10.5 18 8.59721 18 6.25C18 3.90279 16.0972 2 13.75 2C11.4028 2 9.5 3.90279 9.5 6.25C9.5 8.59721 11.4028 10.5 13.75 10.5Z" fill="#FED98A"/>
</svg>
