<svg width="29" height="25" viewBox="0 0 29 25" fill="none" xmlns="http://www.w3.org/2000/svg">
<path d="M28 24.9H9.35081C9.12375 24.9 8.90344 24.8227 8.72612 24.6809L4 20.9H1C0.447688 20.9 0 20.4523 0 19.9V9.89999C0 9.34768 0.447688 8.89999 1 8.89999H28C28.5523 8.89999 29 9.34768 29 9.89999V23.9C29 24.4523 28.5523 24.9 28 24.9Z" fill="#5894FF"/>
<path d="M9.5 8.89999H10.5V24.9H9.5V8.89999ZM18.5 8.89999H19.5V24.9H18.5V8.89999Z" fill="#ADCBFF"/>
<path d="M14.5 0.75C17.6757 0.75 20.25 3.32435 20.25 6.5C20.25 7.53059 19.8885 8.68229 19.4053 9.7793C18.9156 10.8907 18.2692 12.0166 17.6328 13.0156C16.9951 14.0169 16.3582 14.9042 15.8818 15.541C15.6433 15.8598 15.4438 16.117 15.3037 16.2949C15.2337 16.3838 15.1788 16.4536 15.1406 16.501C15.1216 16.5246 15.1068 16.5431 15.0967 16.5557C15.0918 16.5616 15.0877 16.566 15.085 16.5693C15.0836 16.571 15.0818 16.5723 15.0811 16.5732L15.0801 16.5752L14.5 17.2832L13.9199 16.5752L13.9189 16.5732C13.9182 16.5723 13.9164 16.571 13.915 16.5693C13.9123 16.566 13.9082 16.5616 13.9033 16.5557C13.8932 16.5431 13.8784 16.5246 13.8594 16.501C13.8212 16.4536 13.7663 16.3838 13.6963 16.2949C13.5562 16.117 13.3567 15.8598 13.1182 15.541C12.6418 14.9042 12.0049 14.0169 11.3672 13.0156C10.7308 12.0166 10.0844 10.8907 9.59473 9.7793C9.11146 8.68229 8.75 7.53059 8.75 6.5C8.75 3.32435 11.3243 0.75 14.5 0.75Z" fill="#FFB117" stroke="white" stroke-width="1.5"/>
<path d="M14.5 8.89999C16.0464 8.89999 17.3 7.64639 17.3 6.09999C17.3 4.55359 16.0464 3.29999 14.5 3.29999C12.9536 3.29999 11.7 4.55359 11.7 6.09999C11.7 7.64639 12.9536 8.89999 14.5 8.89999Z" fill="#FED98A"/>
</svg>
