<svg width="20" height="20" viewBox="0 0 20 20" fill="none" xmlns="http://www.w3.org/2000/svg">
<path d="M14.3117 1.13399C14.9672 0.941414 15.6714 1.00114 16.2863 1.29903C16.7317 1.51494 17.1048 1.90173 17.6018 2.39864C18.0986 2.89548 18.4855 3.26868 18.7014 3.71407C18.9991 4.32898 19.0581 5.03319 18.8654 5.68868C18.7257 6.16364 18.4048 6.59524 17.9963 7.16719L17.7414 7.52364C17.4041 7.99511 17.3027 8.58826 17.3684 9.16426C17.3996 9.43863 17.4162 9.7175 17.4162 10.0002C17.4162 10.2828 17.3997 10.5619 17.3684 10.8361C17.3027 11.4117 17.4035 12.0045 17.7404 12.4758L17.9963 12.8332C18.4047 13.405 18.7258 13.8368 18.8654 14.3117C19.058 14.9671 18.999 15.6706 18.7014 16.2854C18.4856 16.7308 18.0986 17.104 17.6018 17.6008C17.1048 18.0978 16.7318 18.4855 16.2863 18.7014C15.6713 18.9994 14.9664 19.0582 14.3107 18.8654C13.836 18.7257 13.4048 18.4046 12.8332 17.9963L12.4758 17.7404C12.0045 17.4035 11.4117 17.3027 10.8361 17.3684C10.5619 17.3997 10.2828 17.4162 10.0002 17.4162C9.71748 17.4162 9.43862 17.3996 9.16425 17.3684C8.58825 17.3027 7.9951 17.4041 7.52363 17.7414L7.16718 17.9963C6.59523 18.4048 6.16363 18.7257 5.68867 18.8654C5.03318 19.0581 4.32897 18.9992 3.71406 18.7014C3.26867 18.4855 2.89546 18.0986 2.39863 17.6018C1.90173 17.1049 1.51493 16.7317 1.29902 16.2863C1.00104 15.6713 0.941203 14.9664 1.13398 14.3107C1.2737 13.8359 1.59566 13.405 2.0041 12.8332L2.25996 12.4748C2.59566 12.0038 2.6953 11.4118 2.63007 10.8371C2.5989 10.5624 2.58321 10.2832 2.5832 10.0002C2.5832 9.71723 2.59895 9.43797 2.63007 9.16329C2.69529 8.58805 2.59531 7.99484 2.25898 7.52364L2.0041 7.16719C1.59552 6.59519 1.27366 6.16369 1.13398 5.68868C0.941274 5.03309 1.00112 4.32904 1.29902 3.71407C1.51487 3.26862 1.90174 2.89552 2.39863 2.39864C2.89554 1.90172 3.26857 1.5139 3.71406 1.29805C4.32897 1.00027 5.03318 0.942288 5.68867 1.13497C6.16359 1.27469 6.59527 1.5956 7.16718 2.00411L7.52363 2.25899C7.99484 2.59533 8.58803 2.6953 9.16328 2.63009C9.43795 2.59897 9.71721 2.58321 10.0002 2.58321C10.2832 2.58322 10.5624 2.59892 10.8371 2.63009C11.4118 2.69531 12.0038 2.59567 12.4748 2.25997L12.8332 2.00411C13.4051 1.59558 13.8367 1.27367 14.3117 1.13399ZM10.0002 7.5002C8.61948 7.5002 7.50019 8.61949 7.50019 10.0002C7.50038 11.3808 8.61959 12.5002 10.0002 12.5002C11.3807 12.5001 12.5 11.3807 12.5002 10.0002C12.5002 8.61955 11.3808 7.5003 10.0002 7.5002Z" fill="#436CFB"/>
</svg>
