<svg width="25" height="28" viewBox="0 0 25 28" fill="none" xmlns="http://www.w3.org/2000/svg">
<path fill-rule="evenodd" clip-rule="evenodd" d="M1.95874 27.2954H22.215C22.9785 27.2954 23.5976 26.6751 23.5976 25.9099V1.96263C23.5976 1.19754 22.9785 0.577148 22.215 0.577148H1.95874C1.19524 0.577148 0.576099 1.19749 0.576099 1.96263V25.9099C0.576099 26.675 1.19524 27.2954 1.95874 27.2954Z" fill="#FFB117"/>
<path fill-rule="evenodd" clip-rule="evenodd" d="M22.2149 1.15472C22.6596 1.15472 23.0215 1.51727 23.0215 1.96291V25.9102C23.0215 26.3559 22.6596 26.7184 22.2149 26.7184H1.95869C1.51392 26.7184 1.15213 26.3559 1.15213 25.9102V1.96291C1.15213 1.51727 1.51392 1.15472 1.95869 1.15472H22.2149ZM1.95869 27.873H22.2149C23.2949 27.873 24.1736 26.9924 24.1736 25.9103V1.96291C24.1737 0.880724 23.295 0.000244141 22.215 0.000244141H1.95874C0.878736 0.000244141 1.90735e-06 0.880779 1.90735e-06 1.96297V25.9103C1.90735e-06 26.9925 0.878683 27.873 1.95869 27.873Z" fill="#5894FF"/>
<path fill-rule="evenodd" clip-rule="evenodd" d="M20.7188 24.9601H3.45449V0.577148H20.7188V24.9601Z" fill="white"/>
<path fill-rule="evenodd" clip-rule="evenodd" d="M20.1431 24.383H4.03097V1.15459H20.1431V24.383ZM3.45488 25.5375H20.7192C21.0372 25.5375 21.2953 25.2793 21.2953 24.9603V0.577239C21.2953 0.258612 21.0372 0 20.7192 0H3.45488C3.13685 0 2.87873 0.258612 2.87873 0.577239V24.9602C2.87873 25.2792 3.13685 25.5375 3.45488 25.5375V25.5375Z" fill="#5894FF"/>
<path fill-rule="evenodd" clip-rule="evenodd" d="M17.2898 3.65403H6.88421V0.577148H17.2898V3.65403Z" fill="#ADAE9C"/>
<path fill-rule="evenodd" clip-rule="evenodd" d="M16.7133 3.07682H7.45997V1.15459H16.7133V3.07682ZM6.88388 4.23141H17.2895C17.6074 4.23141 17.8655 3.97313 17.8655 3.65412V0.577239C17.8655 0.258612 17.6075 0 17.2894 0H6.88382C6.56585 0 6.30773 0.258612 6.30773 0.577239V3.65412C6.30773 3.97313 6.56579 4.23141 6.88388 4.23141ZM6.70623 9.93189H13.5803C13.8987 9.93189 14.1564 9.67366 14.1564 9.35465C14.1564 9.03559 13.8987 8.77736 13.5803 8.77736H6.70623C6.38815 8.77736 6.13008 9.03559 6.13008 9.3546C6.13008 9.67366 6.38815 9.93189 6.70623 9.93189ZM16.9748 10.2858C17.1134 10.2859 17.2474 10.2359 17.352 10.1449L18.2422 9.37255C18.4827 9.16391 18.5084 8.79913 18.3002 8.55819C18.0925 8.31688 17.7287 8.29031 17.4876 8.49971L17.0174 8.90765L15.9585 7.77003C15.7415 7.5364 15.3775 7.52451 15.144 7.74155C14.9115 7.95897 14.8989 8.32424 15.1159 8.55743L16.5535 10.1022C16.6073 10.1601 16.6725 10.2063 16.745 10.2379C16.8175 10.2695 16.8957 10.2858 16.9748 10.2858ZM6.70618 14.2401H13.5803C13.8987 14.2401 14.1565 13.9819 14.1565 13.6629C14.1565 13.3438 13.8987 13.0856 13.5803 13.0856H6.70629C6.3882 13.0856 6.13014 13.3438 6.13014 13.6628C6.13014 13.9819 6.38809 14.2401 6.70618 14.2401ZM16.9749 14.5939C17.1089 14.5939 17.2429 14.5474 17.352 14.4531L18.2423 13.6807C18.4827 13.4721 18.5085 13.1073 18.3003 12.8664C18.0925 12.6254 17.7288 12.5989 17.4876 12.8079L17.0175 13.2158L15.9586 12.0782C15.7416 11.8446 15.3768 11.8327 15.144 12.0497C14.9116 12.2675 14.899 12.6324 15.116 12.8656L16.5536 14.4104C16.6074 14.4683 16.6726 14.5145 16.7451 14.5461C16.8176 14.5777 16.8958 14.594 16.9749 14.5939ZM6.70623 18.4569H13.5803C13.8987 18.4569 14.1565 18.1987 14.1565 17.8797C14.1565 17.5606 13.8987 17.3024 13.5803 17.3024H6.70629C6.3882 17.3024 6.13014 17.5606 6.13014 17.8797C6.13014 18.1987 6.38815 18.4569 6.70623 18.4569ZM16.9749 18.8108C17.1089 18.8108 17.2429 18.7642 17.352 18.6699L18.2423 17.8975C18.4827 17.6889 18.5085 17.3241 18.3003 17.0832C18.0925 16.8423 17.7288 16.8157 17.4876 17.0247L17.0175 17.4326L15.9586 16.295C15.7416 16.0614 15.3768 16.0495 15.144 16.2665C14.9116 16.4844 14.899 16.8492 15.116 17.0824L16.5536 18.6272C16.6074 18.6851 16.6726 18.7313 16.7451 18.7629C16.8176 18.7945 16.8958 18.8108 16.9749 18.8108Z" fill="#0D0C0C"/>
<path opacity="0.15" fill-rule="evenodd" clip-rule="evenodd" d="M1.95874 0.577148H3.23734C3.45089 9.85591 6.14896 26.3741 22.5344 27.2546C22.4315 27.2788 22.3255 27.2954 22.2149 27.2954H1.95869C1.19518 27.2954 0.576044 26.675 0.576044 25.9099V1.96263C0.576044 1.19754 1.19524 0.577148 1.95874 0.577148Z" fill="#D45985"/>
</svg>
