<svg width="25" height="22" viewBox="0 0 25 22" fill="none" xmlns="http://www.w3.org/2000/svg">
<path d="M12.3469 8.91748H16.6411V6.67203H10.6925C10.301 6.67203 9.98371 6.3543 9.98371 5.96327V0.0146536L1.20444 0C0.401479 0 0 0.767329 0 1.57029V20.8852C0 21.2762 0.317739 21.5939 0.708765 21.5939L15.9323 21.6086C16.3238 21.6086 16.6411 21.2908 16.6411 20.8998V16.9498H12.3469C11.1748 16.9498 10.2211 15.9961 10.2211 14.824V11.0438C10.2211 9.87117 11.1748 8.91748 12.3469 8.91748ZM7.38033 17.1839H2.87289C2.48139 17.1839 2.16412 16.8666 2.16412 16.4751C2.16412 16.0836 2.48139 15.7664 2.87289 15.7664H7.37986C7.77136 15.7664 8.08862 16.0836 8.08862 16.4751C8.0891 16.8666 7.77136 17.1839 7.38033 17.1839ZM7.38033 14.3488H2.87289C2.48139 14.3488 2.16412 14.0316 2.16412 13.6401C2.16412 13.2486 2.48139 12.9313 2.87289 12.9313H7.37986C7.77136 12.9313 8.08862 13.2486 8.08862 13.6401C8.0891 14.0316 7.77136 14.3488 7.38033 14.3488ZM7.38033 11.5138H2.87289C2.48139 11.5138 2.16412 11.1965 2.16412 10.805C2.16412 10.4135 2.48139 10.0962 2.87289 10.0962H7.37986C7.77136 10.0962 8.08862 10.4135 8.08862 10.805C8.0891 11.1965 7.77136 11.5138 7.38033 11.5138ZM7.38033 8.6787H2.87289C2.48139 8.6787 2.16412 8.36144 2.16412 7.96994C2.16412 7.57844 2.48139 7.26117 2.87289 7.26117H7.37986C7.77136 7.26117 8.08862 7.57844 8.08862 7.96994C8.0891 8.36144 7.77136 8.6787 7.38033 8.6787ZM7.38033 5.84364H2.87289C2.48139 5.84364 2.16412 5.52638 2.16412 5.13488C2.16412 4.74338 2.48139 4.42611 2.87289 4.42611H7.37986C7.77136 4.42611 8.08862 4.74338 8.08862 5.13488C8.0891 5.52638 7.77136 5.84364 7.38033 5.84364Z" fill="white"/>
<path d="M23.9779 13.4585L19.4861 17.5546C19.0355 17.965 18.2997 17.6506 18.2997 17.0302V15.5328H12.3469C11.9558 15.5328 11.6381 15.2155 11.6381 14.824V11.0438C11.6381 10.6523 11.9558 10.335 12.3469 10.335H18.2993V8.83757C18.2993 8.2229 19.0303 7.89901 19.4851 8.31368L23.9779 12.4112C24.2857 12.692 24.2857 13.1776 23.9779 13.4585Z" fill="white"/>
<path d="M16.6411 5.2545H11.4012V0.0146484C11.5941 0.0146484 11.7738 0.0936102 11.9024 0.222219L16.4212 4.74148C16.573 4.89326 16.6411 5.07435 16.6411 5.2545Z" fill="white"/>
</svg>
