<svg width="28" height="28" viewBox="0 0 28 28" fill="none" xmlns="http://www.w3.org/2000/svg">
<path d="M26.368 19.8964C26.2113 19.6722 26.0355 19.4618 25.8421 19.2684C25.1058 18.5321 24.1713 18.0752 23.1386 17.9467C22.5165 17.8702 21.8854 17.9185 21.2819 18.0891L17.732 14.5392L14.5392 17.7321L18.089 21.2824C17.9185 21.8854 17.8702 22.5165 17.9467 23.1386C18.0752 24.1713 18.5321 25.1063 19.2684 25.8421C19.4618 26.0355 19.6722 26.2119 19.8964 26.3681C20.6752 26.9121 21.5921 27.2 22.5478 27.2C22.8219 27.2 23.0955 27.1761 23.3654 27.1283C23.6491 27.0778 23.877 26.886 23.9742 26.6146C24.0725 26.342 24.0189 26.0477 23.8319 25.8272L22.3454 24.08L24.0799 22.3454L25.8272 23.8319C26.0477 24.0189 26.342 24.0725 26.614 23.9748C26.8855 23.877 27.0778 23.6491 27.1283 23.3654C27.1761 23.0956 27.2 22.822 27.2 22.5478C27.2 21.5921 26.912 20.6757 26.368 19.8964Z" fill="#F56961"/>
<path d="M12.6608 9.46794L9.46794 12.6608L5.91759 9.11094C5.31463 9.28147 4.6835 9.32981 4.06088 9.25331C3.02866 9.12475 2.09366 8.66788 1.35788 7.93156C1.1645 7.73819 0.988125 7.52781 0.831938 7.30363C0.287938 6.52481 0 5.60788 0 4.65216C0 4.37803 0.0239063 4.10444 0.0717188 3.83456C0.121656 3.55088 0.313969 3.32297 0.585438 3.22575C0.857969 3.12747 1.15228 3.18059 1.37275 3.36813L3.12003 4.85456L4.85456 3.12003L3.36813 1.37275C3.18059 1.15228 3.12747 0.857969 3.22522 0.585438C3.32297 0.313969 3.55088 0.122188 3.83456 0.0717188C4.10444 0.0239063 4.37803 0 4.65216 0C5.60788 0 6.52428 0.287938 7.30363 0.831938C7.52781 0.988125 7.73819 1.1645 7.93156 1.35788C8.66788 2.09366 9.12475 3.02866 9.25278 4.06141C9.32981 4.6835 9.28147 5.31463 9.11094 5.91813L12.6608 9.46794Z" fill="#F56961"/>
<path d="M13.3291 19.8815L7.3185 13.871C7.00719 13.5602 6.5025 13.5602 6.19172 13.871C5.88041 14.1823 5.88041 14.687 6.19172 14.9983L6.37925 15.1858L1.16503 20.4C-0.388344 21.9539 -0.388344 24.4816 1.16503 26.035C2.71841 27.5884 5.24609 27.5884 6.8 26.035L12.0142 20.8208L12.2018 21.0083C12.5131 21.3196 13.0178 21.3196 13.3291 21.0083C13.6398 20.6975 13.6398 20.1928 13.3291 19.8815ZM8.01656 20.3102L3.96153 24.3653C3.65022 24.6766 3.14606 24.6766 2.83475 24.3653C2.52344 24.054 2.52344 23.5498 2.83475 23.2385L6.88978 19.1835C7.20109 18.8722 7.70525 18.8722 8.01656 19.1835C8.32788 19.4942 8.32788 19.9989 8.01656 20.3102Z" fill="#FED98A"/>
<path d="M27.0741 3.02811L24.7074 6.74686C24.5905 6.92961 24.404 7.05764 24.1915 7.10067L22.5983 7.41942L12.8595 17.1583L10.0417 14.3405L19.7806 4.60167L20.0993 3.00845C20.1424 2.79595 20.2699 2.60948 20.4531 2.49261L24.1719 0.125889C24.4896 -0.0759864 24.897 -0.0313614 25.1632 0.234795L26.9652 2.03679C27.2314 2.30295 27.276 2.71042 27.0741 3.02811Z" fill="#FFB117"/>
</svg>
