<svg width="20" height="27" viewBox="0 0 20 27" fill="none" xmlns="http://www.w3.org/2000/svg">
<g clip-path="url(#clip0_381_3672)">
<path d="M18.7903 3.80957H16.3815V6.12618C16.3815 7.40341 15.3421 8.44279 14.0649 8.44279H5.49758C4.22035 8.44279 3.18097 7.40341 3.18097 6.12618V3.80957H0.772204C0.345947 3.80957 0 4.15552 0 4.58177V25.5857C0 26.012 0.345947 26.3579 0.772204 26.3579H18.7903C19.2166 26.3579 19.5625 26.012 19.5625 25.5857V4.58177C19.5625 4.15552 19.2166 3.80957 18.7903 3.80957ZM7.50891 21.0611L5.21804 23.352C5.0672 23.5028 4.86952 23.578 4.67183 23.578C4.47415 23.578 4.27647 23.5028 4.12563 23.352L2.78714 22.0135C2.48598 21.7118 2.48598 21.2228 2.78714 20.9211C3.08882 20.6199 3.57788 20.6199 3.87955 20.9211L4.67183 21.7139L6.4165 19.9687C6.71817 19.6676 7.20724 19.6676 7.50891 19.9687C7.81007 20.2704 7.81007 20.7594 7.50891 21.0611ZM7.50891 16.1705L5.21804 18.4614C5.0672 18.6122 4.86952 18.6874 4.67183 18.6874C4.47415 18.6874 4.27647 18.6122 4.12563 18.4614L2.78714 17.1229C2.48598 16.8212 2.48598 16.3321 2.78714 16.0305C3.08882 15.7293 3.57788 15.7293 3.87955 16.0305L4.67183 16.8233L6.4165 15.0781C6.71817 14.7769 7.20724 14.7769 7.50891 15.0781C7.81007 15.3798 7.81007 15.8688 7.50891 16.1705ZM7.50891 11.2799L5.21804 13.5707C5.0672 13.7216 4.86952 13.7967 4.67183 13.7967C4.47415 13.7967 4.27647 13.7216 4.12563 13.5707L2.78714 12.2323C2.48598 11.9306 2.48598 11.4415 2.78714 11.1398C3.08882 10.8387 3.57788 10.8387 3.87955 11.1398L4.67183 11.9326L6.4165 10.1875C6.71817 9.8863 7.20724 9.8863 7.50891 10.1875C7.81007 10.4891 7.81007 10.9782 7.50891 11.2799ZM16.6024 22.4454H12.2266C11.8003 22.4454 11.4544 22.0995 11.4544 21.6732C11.4544 21.247 11.8003 20.901 12.2266 20.901H16.6024C17.0286 20.901 17.3746 21.247 17.3746 21.6732C17.3746 22.0995 17.0286 22.4454 16.6024 22.4454ZM16.6024 17.5548H12.2266C11.8003 17.5548 11.4544 17.2089 11.4544 16.7826C11.4544 16.3563 11.8003 16.0104 12.2266 16.0104H16.6024C17.0286 16.0104 17.3746 16.3563 17.3746 16.7826C17.3746 17.2089 17.0286 17.5548 16.6024 17.5548ZM16.6024 12.6513H12.2266C11.8003 12.6513 11.4544 12.3054 11.4544 11.8791C11.4544 11.4528 11.8003 11.1069 12.2266 11.1069H16.6024C17.0286 11.1069 17.3746 11.4528 17.3746 11.8791C17.3746 12.3054 17.0286 12.6513 16.6024 12.6513Z" fill="#FFB117"/>
<path d="M14.8372 3.03991V6.12615C14.8372 6.55241 14.4917 6.89836 14.065 6.89836H5.49762C5.07137 6.89836 4.72542 6.55241 4.72542 6.12615V3.03991C4.72542 2.61365 5.07137 2.26771 5.49762 2.26771H6.84074C7.18309 0.964225 8.37177 0 9.78129 0C11.1908 0 12.3795 0.964225 12.7218 2.26771H14.065C14.4917 2.26771 14.8372 2.61365 14.8372 3.03991Z" fill="#F56961"/>
</g>
<defs>
<clipPath id="clip0_381_3672">
<rect width="19.5625" height="26.3579" fill="white"/>
</clipPath>
</defs>
</svg>
