<svg width="20" height="20" viewBox="0 0 20 20" fill="none" xmlns="http://www.w3.org/2000/svg">
<path d="M9.57682 1.6665C11.6456 1.6665 13.3337 3.32503 13.3337 5.3667V9.35791H8.24577C7.88146 9.35809 7.5936 9.64145 7.59342 9.99951C7.59342 10.3494 7.88135 10.6409 8.24577 10.6411H13.3337V14.6245C13.3337 16.6662 11.646 18.3335 9.56022 18.3335H5.43131C3.35408 18.3335 1.66674 16.6749 1.66667 14.6333V5.37451C1.66685 3.32466 3.36294 1.6665 5.4401 1.6665H9.57682ZM15.4499 7.12549C15.6998 6.86722 16.1081 6.8669 16.3581 7.1167L18.7917 9.5415C18.9167 9.6665 18.9831 9.82549 18.9831 10.0005C18.9829 10.167 18.9165 10.3332 18.7917 10.4497L16.3581 12.8755C16.2332 13.0001 16.0669 13.0668 15.9089 13.0669C15.7422 13.0669 15.5749 13.0004 15.4499 12.8755C15.1999 12.6255 15.1999 12.2163 15.4499 11.9663L16.7839 10.6421H13.3337V9.35791H16.7839L15.4499 8.03369C15.2 7.78382 15.2003 7.37552 15.4499 7.12549Z" fill="#DD5F58"/>
</svg>
