<svg width="26" height="26" viewBox="0 0 26 26" fill="none" xmlns="http://www.w3.org/2000/svg">
<path d="M7.01794 12.4922V16.5547C7.01794 16.9754 7.35899 17.3164 7.77966 17.3164H10.5726L11.5883 11.7305H7.77966C7.35899 11.7305 7.01794 12.0715 7.01794 12.4922Z" fill="#FFB117"/>
<path d="M14.625 9.69922L15.6406 17.3164H18.4336C18.8543 17.3164 19.1953 16.9754 19.1953 16.5547V10.4609C19.1953 10.0403 18.8543 9.69922 18.4336 9.69922H14.625Z" fill="#FFB117"/>
<path d="M3.86081 12.183H0.761827C0.303881 12.183 -0.0505215 11.7818 0.00594734 11.3274C0.361061 8.4698 1.68234 5.77042 3.72634 3.72637C5.77039 1.68237 8.46977 0.361039 11.3273 0.00592519H11.3274C11.7818 -0.0505436 12.183 0.303808 12.183 0.761704V3.86089C12.183 4.04101 12.1191 4.21531 12.0028 4.35282C11.8864 4.49033 11.7251 4.58216 11.5475 4.61199C7.99344 5.20873 5.20875 7.99342 4.61202 11.5474C4.58218 11.7251 4.49035 11.8864 4.35281 12.0028C4.21528 12.1191 4.04096 12.183 3.86081 12.183Z" fill="#F56961"/>
<path d="M14.5746 0.00592445C14.1201 -0.0505444 13.7189 0.303859 13.7189 0.761805V3.86079C13.7189 4.04094 13.7827 4.21526 13.8991 4.35279C14.0155 4.49032 14.1768 4.58216 14.3545 4.61199C18.4468 5.29917 21.4171 8.80623 21.4171 12.951C21.4171 14.7125 20.8714 16.4077 19.8392 17.8535C19.7345 18.0002 19.6851 18.1793 19.7 18.359C19.7149 18.5386 19.793 18.7072 19.9205 18.8347L22.1128 21.027C22.4367 21.3509 22.9713 21.3177 23.2525 20.9562L23.2526 20.9561C25.0499 18.6463 26 15.8781 26 12.951C26 6.38061 21.0881 0.81543 14.5746 0.00592445Z" fill="#F56961"/>
<path d="M21.027 22.1128L18.8347 19.9206C18.7072 19.7931 18.5387 19.715 18.359 19.7001C18.1794 19.6852 18.0002 19.7345 17.8535 19.8393C16.4078 20.8715 14.7126 21.4171 12.9511 21.4171C8.80628 21.4171 5.29922 18.4469 4.61204 14.3546C4.58221 14.1769 4.49038 14.0156 4.35286 13.8992C4.21534 13.7829 4.04103 13.719 3.86089 13.719H0.761804C0.303858 13.719 -0.0505444 14.1202 0.00592445 14.5746C0.81543 21.0882 6.38061 26.0001 12.951 26.0001C15.8781 26.0001 18.6462 25.05 20.9561 23.2526C21.3176 22.9712 21.3509 22.4367 21.027 22.1128Z" fill="#F56961"/>
<path d="M14.0156 7.05859C14.7729 7.05859 15.3867 7.67247 15.3867 8.42969V17.9258H10.6133V8.42969C10.6133 7.67247 11.2272 7.05859 11.9844 7.05859H14.0156Z" fill="#FFB117" stroke="white" stroke-width="1.21875"/>
</svg>
