<svg width="30" height="29" viewBox="0 0 30 29" fill="none" xmlns="http://www.w3.org/2000/svg">
<path d="M30 13.5562H16.4437V0H17.2875C24.2665 0 30 5.73345 30 12.7125V13.5562Z" fill="#5894FF"/>
<path d="M4.96713 25.0328C7.25881 27.3245 10.4229 28.8 13.9124 28.8C20.8914 28.8 26.5686 23.0666 26.5686 16.0875V15.2438H14.7562L7.37334 19.2516L4.96713 25.0328Z" fill="#FFB117"/>
<path d="M14.7563 3.43127H13.9125C10.8518 3.43127 8.04199 4.52387 5.85117 6.33867L10.5902 14.4527L14.7563 15.2438V3.43127Z" fill="#ADCBFF"/>
<path d="M16.1707 15.2439L4.96758 26.447L4.26054 25.74C1.79789 23.2773 0.200044 19.8648 0.199997 16.0876C0.199997 11.848 2.19825 8.06587 5.21367 5.56812L5.91484 4.98804L16.1707 15.2439Z" fill="#FED98A" stroke="white" stroke-width="2"/>
</svg>
