<svg width="32" height="32" viewBox="0 0 32 32" fill="none" xmlns="http://www.w3.org/2000/svg">
<path d="M5.33334 14.0001V3.66675H26.6667V14.0001C26.6667 18.0856 26.6667 20.1283 25.3277 21.3975C23.9888 22.6667 21.8338 22.6667 17.5238 22.6667H17H15H14.4762C10.1662 22.6667 8.01122 22.6667 6.67228 21.3975C5.33334 20.1283 5.33334 18.0856 5.33334 14.0001Z" fill="#5894FF"/>
<path d="M20.7071 12.0404C21.0976 11.6498 21.0976 11.0167 20.7071 10.6261C20.3166 10.2356 19.6834 10.2356 19.2929 10.6261L17.569 12.35C17.4756 12.4434 17.3999 12.5191 17.3333 12.5835C17.2668 12.5191 17.191 12.4434 17.0976 12.35L16.284 11.5364C16.0907 11.343 15.8817 11.1338 15.6815 10.981C15.447 10.8021 15.1113 10.6094 14.6667 10.6094C14.222 10.6094 13.8864 10.8021 13.6518 10.981C13.4516 11.1338 13.2425 11.343 13.0492 11.5365L11.2929 13.2928C10.9024 13.6833 10.9024 14.3165 11.2929 14.707C11.6834 15.0975 12.3166 15.0975 12.7071 14.707L14.431 12.9832C14.5244 12.8898 14.6001 12.8141 14.6667 12.7496C14.7332 12.8141 14.809 12.8898 14.9024 12.9832L15.7159 13.7967C15.9092 13.9902 16.1182 14.1994 16.3185 14.3521C16.553 14.5311 16.8887 14.7238 17.3333 14.7238C17.778 14.7238 18.1136 14.5311 18.3482 14.3521C18.5484 14.1994 18.7575 13.9902 18.9508 13.7967L20.7071 12.0404Z" fill="white"/>
<path d="M2.66666 1.66675C2.11437 1.66675 1.66666 2.11446 1.66666 2.66675C1.66666 3.21903 2.11437 3.66675 2.66666 3.66675H5.33332H26.6667H29.3333C29.8856 3.66675 30.3333 3.21903 30.3333 2.66675C30.3333 2.11446 29.8856 1.66675 29.3333 1.66675H2.66666Z" fill="#ACCAFF"/>
<path d="M15.0002 22.6667V27.382L12.8863 28.439C12.3924 28.686 12.1921 29.2866 12.4391 29.7806C12.6861 30.2746 13.2868 30.4748 13.7808 30.2278L16.0002 29.1181L18.2197 30.2278C18.7137 30.4748 19.3143 30.2746 19.5613 29.7806C19.8083 29.2866 19.6081 28.686 19.1141 28.439L17.0002 27.382V22.6667H15.0002Z" fill="#FED98A"/>
</svg>
