<svg width="28" height="26" viewBox="0 0 28 26" fill="none" xmlns="http://www.w3.org/2000/svg">
<path fill-rule="evenodd" clip-rule="evenodd" d="M8.60431 20.5345C5.9943 20.5345 3.52857 20.1515 1.66129 19.4561C0.981401 19.2028 0.435931 18.931 0.000152588 18.6513V22.5799C0.000152588 22.9895 0.583902 23.6851 2.22899 24.2978C3.91913 24.9273 6.18326 25.274 8.60431 25.274C11.0252 25.274 13.2894 24.9273 14.9795 24.2978C16.6247 23.6851 17.2084 22.9895 17.2084 22.5799V18.6513C16.7726 18.931 16.2271 19.2028 15.5472 19.4561C13.68 20.1515 11.2143 20.5345 8.60431 20.5345Z" fill="#5894FF"/>
<path d="M24.9395 5.36108H26.5661C27.0154 5.36108 27.3795 5.72524 27.3795 6.17441V7.80106C27.3795 8.25023 27.0153 8.61438 26.5661 8.61438H24.9395C24.4903 8.61438 24.1262 8.25023 24.1262 7.80106V6.17441C24.1262 5.72524 24.4903 5.36108 24.9395 5.36108Z" fill="#FED98A"/>
<path d="M22.4995 6.17441H18.4667V7.80106H22.4995V6.17441Z" fill="#FED98A"/>
<path fill-rule="evenodd" clip-rule="evenodd" d="M8.59899 7.78046C5.99587 7.78046 3.53198 7.39679 1.66129 6.70004C0.981672 6.44693 0.436148 6.1755 0.000152588 5.89637V9.82087C0.000152588 10.2304 0.583902 10.9261 2.22899 11.5388C3.91913 12.1682 6.18326 12.5149 8.60431 12.5149C11.0252 12.5149 13.2894 12.1682 14.9795 11.5388C16.6247 10.9261 17.2084 10.2304 17.2084 9.82087V5.88959C16.7706 6.17111 16.2217 6.44493 15.5366 6.70009C13.666 7.39679 11.2021 7.78046 8.59899 7.78046Z" fill="#FED98A"/>
<path fill-rule="evenodd" clip-rule="evenodd" d="M8.60425 14.1416C5.99424 14.1416 3.52851 13.7586 1.66123 13.0631C0.981347 12.8099 0.435877 12.5381 0.000152588 12.2584V16.2138C0.000152588 16.6233 0.583902 17.319 2.22899 17.9317C3.91913 18.5611 6.18326 18.9078 8.60431 18.9078C11.0253 18.9078 13.2894 18.5611 14.9796 17.9317C16.6247 17.319 17.2084 16.6233 17.2084 16.2138V12.2583C16.7726 12.538 16.2271 12.8098 15.5472 13.0631C13.6799 13.7586 11.2142 14.1416 8.60425 14.1416Z" fill="#FFB117"/>
<path d="M24.9394 18.8555H26.5661C27.0153 18.8555 27.3794 19.2197 27.3794 19.6689V21.2955C27.3794 21.7447 27.0152 22.1088 26.5661 22.1088H24.9394C24.4903 22.1088 24.1261 21.7447 24.1261 21.2955V19.6689C24.1261 19.2197 24.4903 18.8555 24.9394 18.8555Z" fill="#5894FF"/>
<path d="M22.4995 19.6689H18.4666V21.2955H22.4995V19.6689Z" fill="#5894FF"/>
<path d="M24.9394 11.9626H26.5661C27.0153 11.9626 27.3794 12.3267 27.3794 12.7759V14.4026C27.3794 14.8517 27.0152 15.2159 26.5661 15.2159H24.9394C24.4903 15.2159 24.1261 14.8517 24.1261 14.4026V12.7759C24.1261 12.3267 24.4903 11.9626 24.9394 11.9626Z" fill="#FFB117"/>
<path d="M22.4995 12.559H18.4666V14.1857H22.4995V12.559Z" fill="#FFB117"/>
<path d="M8.68972 5.388C6.27556 5.388 4.01332 5.04066 2.31977 4.4099C0.670726 3.79578 0.0856209 3.10175 0.0856209 2.694C0.0856209 2.28625 0.670726 1.59222 2.31977 0.978049C4.01332 0.347289 6.27561 0 8.68972 0C11.1038 0 13.3661 0.347343 15.0596 0.978103C16.7087 1.59227 17.2938 2.28631 17.2938 2.694C17.2938 3.10169 16.7087 3.79578 15.0596 4.4099C13.3661 5.04066 11.1039 5.388 8.68972 5.388Z" fill="#ADCBFF"/>
</svg>
