<svg width="32" height="29" viewBox="0 0 32 29" fill="none" xmlns="http://www.w3.org/2000/svg">
<path d="M15.9998 25.5C21.7988 25.5 26.4998 20.799 26.4998 15C26.4998 9.20101 21.7988 4.5 15.9998 4.5C10.2009 4.5 5.49985 9.20101 5.49985 15C5.49985 20.799 10.2009 25.5 15.9998 25.5Z" fill="#5894FF"/>
<path d="M9.99984 7.5H10.8748C11.7033 7.5 12.3748 8.17156 12.3748 9C12.3748 9.82844 11.7033 10.5 10.8748 10.5H10.7498C9.9214 10.5 9.24984 11.1716 9.24984 12C9.24984 12.8284 9.9214 13.5 10.7498 13.5H17.4998C18.3283 13.5 18.9998 12.8284 18.9998 12C18.9998 11.1716 18.3283 10.5 17.4998 10.5C16.6714 10.5 15.9998 9.82844 15.9998 9C15.9998 8.17156 16.6714 7.5 17.4998 7.5H18.9998C19.8283 7.5 20.4998 6.82844 20.4998 6C20.4998 5.8115 20.4647 5.63125 20.4012 5.465C19.0625 4.846 17.5716 4.5 15.9998 4.5C13.326 4.5 10.886 5.5 9.03221 7.14581C9.30253 7.37491 9.64549 7.50044 9.99984 7.5Z" fill="#ADCBFF"/>
<path d="M17.4998 7.5H18.9998C19.8283 7.5 20.4998 6.82844 20.4998 6C20.4998 5.8115 20.4647 5.63125 20.4012 5.465C19.0625 4.846 17.5717 4.5 15.9998 4.5V9C15.9998 8.17156 16.6714 7.5 17.4998 7.5ZM18.9998 12C18.9998 11.1716 18.3283 10.5 17.4998 10.5C16.6714 10.5 15.9998 9.82844 15.9998 9V13.5H17.4998C18.3283 13.5 18.9998 12.8284 18.9998 12ZM26.3927 16.5H18.9998C18.1714 16.5 17.4998 17.1716 17.4998 18C17.4998 18.8284 18.1714 19.5 18.9998 19.5C19.8283 19.5 20.4998 20.1716 20.4998 21C20.4998 21.8284 19.8283 22.5 18.9998 22.5H15.9998C15.1714 22.5 14.4998 23.1716 14.4998 24C14.4998 24.8284 15.1714 25.5 15.9998 25.5C21.2895 25.5 25.6648 21.5883 26.3927 16.5Z" fill="#ADCBFF"/>
<path d="M10.7498 19.5H9.24985C8.42141 19.5 7.74985 18.8284 7.74985 18C7.74985 17.1716 8.42141 16.5 9.24985 16.5H10.7498C11.5783 16.5 12.2498 17.1716 12.2498 18C12.2498 18.8284 11.5783 19.5 10.7498 19.5Z" fill="#ADCBFF"/>
<path d="M15.9998 29C12.2603 29 8.7446 27.5438 6.10035 24.8995C5.70978 24.509 5.70978 23.8758 6.10035 23.4853C6.49091 23.0948 7.1241 23.0948 7.51453 23.4853C9.78103 25.7518 12.7945 27 15.9998 27C19.2052 27 22.2187 25.7518 24.4852 23.4853C26.7516 21.2188 27.9998 18.2053 27.9998 15C27.9998 14.4478 28.4475 14 28.9998 14C29.5522 14 29.9998 14.4478 29.9998 15C29.9998 18.7396 28.5436 22.2552 25.8993 24.8995C23.2551 27.5438 19.7394 29 15.9998 29ZM2.99985 16C2.44753 16 1.99985 15.5522 1.99985 15C1.99985 11.2604 3.4561 7.74481 6.10035 5.1005C8.7446 2.45625 12.2603 1 15.9998 1C19.7394 1 23.2551 2.45625 25.8993 5.1005C26.2899 5.491 26.2899 6.12419 25.8993 6.51469C25.5088 6.90519 24.8757 6.90519 24.4852 6.51469C22.2187 4.24825 19.2052 3 15.9998 3C12.7945 3 9.78103 4.24825 7.51453 6.51469C5.2481 8.78125 3.99985 11.7947 3.99985 15C3.99985 15.5522 3.55216 16 2.99985 16Z" fill="#FED98A"/>
<path d="M15.9998 14C19.8658 14 22.9998 10.866 22.9998 7C22.9998 3.13401 19.8658 0 15.9998 0C12.1339 0 8.99985 3.13401 8.99985 7C8.99985 10.866 12.1339 14 15.9998 14Z" fill="#FDFFFD"/>
<path d="M18.1211 3.25738L16.7069 1.84319C16.6141 1.75032 16.5038 1.67665 16.3825 1.62639C16.2612 1.57613 16.1312 1.55026 15.9998 1.55026C15.8685 1.55026 15.7385 1.57613 15.6172 1.62639C15.4959 1.67665 15.3856 1.75032 15.2928 1.84319L13.8786 3.25738C12.9342 4.20175 12.4141 5.45738 12.4141 6.79294C12.4141 8.1285 12.9342 9.38406 13.8786 10.3284L15.2928 11.7426C15.3856 11.8355 15.4959 11.9092 15.6172 11.9594C15.7385 12.0097 15.8685 12.0356 15.9998 12.0356C16.1312 12.0356 16.2612 12.0097 16.3825 11.9594C16.5038 11.9092 16.6141 11.8355 16.7069 11.7426L18.1211 10.3284C19.0655 9.38406 19.5856 8.12844 19.5856 6.79294C19.5856 5.45731 19.0655 4.20175 18.1211 3.25738Z" fill="#FFB117"/>
<path d="M15.9998 12.9498C15.8672 12.9498 15.7401 12.8971 15.6463 12.8033C15.5525 12.7095 15.4998 12.5824 15.4998 12.4498V3.96451C15.4998 3.8319 15.5525 3.70472 15.6463 3.61095C15.7401 3.51719 15.8672 3.46451 15.9998 3.46451C16.1325 3.46451 16.2596 3.51719 16.3534 3.61095C16.4472 3.70472 16.4998 3.8319 16.4998 3.96451V12.4498C16.4998 12.5824 16.4472 12.7095 16.3534 12.8033C16.2596 12.8971 16.1325 12.9498 15.9998 12.9498Z" fill="#FED98A"/>
<path d="M5.96178 14.9753C5.92393 14.8839 5.85984 14.8059 5.77762 14.7509C5.69539 14.696 5.59873 14.6667 5.49984 14.6667H0.499842C0.400983 14.6667 0.304358 14.6961 0.222172 14.751C0.139987 14.806 0.0759282 14.884 0.0380879 14.9754C0.000247594 15.0667 -0.00967669 15.1672 0.00956868 15.2642C0.0288141 15.3611 0.0763657 15.4502 0.146217 15.5202L2.64622 18.0202C2.7439 18.1178 2.87178 18.1666 2.99978 18.1666C3.12778 18.1666 3.25572 18.1178 3.35334 18.0202L5.85334 15.5202C5.92327 15.4503 5.9709 15.3612 5.9902 15.2642C6.0095 15.1672 5.99961 15.0667 5.96178 14.9753ZM31.8534 14.6464L29.3534 12.1464C29.307 12.1 29.2519 12.0632 29.1912 12.038C29.1305 12.0129 29.0655 12 28.9998 12C28.9342 12 28.8692 12.0129 28.8085 12.038C28.7478 12.0632 28.6927 12.1 28.6463 12.1464L26.1463 14.6464C26.0763 14.7164 26.0287 14.8054 26.0094 14.9024C25.9901 14.9994 26 15.1 26.0379 15.1913C26.0757 15.2827 26.1398 15.3608 26.222 15.4157C26.3043 15.4707 26.4009 15.5 26.4998 15.5H31.4998C31.5987 15.4999 31.6953 15.4706 31.7775 15.4156C31.8597 15.3607 31.9238 15.2826 31.9616 15.1913C31.9994 15.0999 32.0094 14.9994 31.9901 14.9024C31.9708 14.8055 31.9233 14.7164 31.8534 14.6464Z" fill="#FFB117"/>
</svg>
