<svg width="20" height="20" viewBox="0 0 20 20" fill="none" xmlns="http://www.w3.org/2000/svg">
<path d="M9.88889 4.59402H9.23704C9.04148 3.96496 8.41333 3.5 7.66667 3.5C6.92 3.5 6.29185 3.96496 6.0963 4.59402H5.44444C5.20148 4.59402 5 4.78 5 5.00427V6H10.3333V5.00427C10.3333 4.78 10.1319 4.59402 9.88889 4.59402Z" fill="#436CFB"/>
<path d="M11.3125 6C12.1992 6 12.917 6.71783 12.917 7.60449V9.21387C12.252 9.23137 11.6156 9.3771 11.0381 9.62793C10.9565 9.54654 10.8517 9.50008 10.7295 9.5H5.1875C4.94833 9.5 4.75 9.69833 4.75 9.9375C4.75 10.1767 4.94833 10.375 5.1875 10.375H9.81934C9.46355 10.6725 9.14236 11.0164 8.87988 11.3955H5.1875C5.03797 11.3955 4.90431 11.4733 4.8252 11.5898C4.77768 11.6598 4.75 11.7443 4.75 11.834C4.75005 11.8937 4.76282 11.9508 4.78516 12.0029C4.8187 12.0811 4.87449 12.1479 4.94434 12.1953C5.01422 12.2428 5.09783 12.2715 5.1875 12.2715H8.38379C8.24393 12.5921 8.13343 12.9364 8.06348 13.292H5.1875C5.12786 13.292 5.07067 13.3039 5.01855 13.3262C4.88784 13.3819 4.78828 13.4999 4.75879 13.6416C4.75287 13.67 4.75 13.6995 4.75 13.7295C4.75004 13.819 4.77784 13.9028 4.8252 13.9727C4.90431 14.0892 5.03798 14.167 5.1875 14.167H7.96387L7.95801 14.3125C7.95801 15.0942 8.13325 15.835 8.44824 16.5H4.60449C3.71783 16.5 3 15.7822 3 14.8955V7.60449C3 6.71783 3.71783 6 4.60449 6H11.3125Z" fill="#FFB117"/>
<path d="M13.125 10C15.3306 10 17.125 11.7938 17.125 14C17.125 16.2062 15.3306 18 13.125 18C10.9194 18 9.125 16.2062 9.125 14C9.125 11.7938 10.9194 10 13.125 10ZM13.125 13.3447C12.7974 13.3447 12.5324 13.609 12.5322 13.9365V16.0107C12.5322 16.3384 12.7973 16.6035 13.125 16.6035C13.4527 16.6035 13.7178 16.3384 13.7178 16.0107V13.9365C13.7176 13.609 13.4526 13.3447 13.125 13.3447ZM13.125 11.8633C12.798 11.8633 12.5324 12.1275 12.5322 12.4551C12.5322 12.7828 12.7979 13.0479 13.125 13.0479C13.4521 13.0479 13.7178 12.7828 13.7178 12.4551C13.7176 12.1275 13.452 11.8633 13.125 11.8633Z" fill="#436CFB"/>
</svg>
