<svg width="32" height="32" viewBox="0 0 32 32" fill="none" xmlns="http://www.w3.org/2000/svg">
<rect width="32" height="32" rx="16" fill="#F0F2FF"/>
<path d="M17.4734 15.9072H14.5267C13.2 15.9072 12.1207 16.9865 12.1207 18.3132V23.1846C12.1207 23.4503 12.3362 23.6658 12.6019 23.6658H19.3981C19.6639 23.6658 19.8793 23.4504 19.8793 23.1846V18.3132C19.8793 16.9865 18.8 15.9072 17.4734 15.9072Z" fill="#FFB117"/>
<path d="M16 8.5C14.4046 8.5 13.1066 9.79799 13.1066 11.3935C13.1066 12.4757 13.7039 13.4208 14.586 13.917C15.0044 14.1524 15.4867 14.2869 16 14.2869C16.5133 14.2869 16.9956 14.1524 17.414 13.917C18.2962 13.4208 18.8934 12.4756 18.8934 11.3935C18.8934 9.79802 17.5955 8.5 16 8.5Z" fill="#FFB117"/>
<path d="M11.1584 18.3131C11.1584 17.9085 11.2302 17.5203 11.3615 17.1606H10.0726C8.74597 17.1606 7.66667 18.2399 7.66667 19.5666V22.2222C7.66667 23.0182 8.31423 23.6658 9.11022 23.6658H11.2412C11.1877 23.5151 11.1584 23.3532 11.1584 23.1846V18.3131Z" fill="#436CFB"/>
<path d="M10.9192 11.5352C9.72602 11.5352 8.75531 12.5059 8.75531 13.6991C8.75531 14.8923 9.72602 15.863 10.9192 15.863C11.2219 15.863 11.5101 15.8003 11.7719 15.6876C12.2246 15.4927 12.5978 15.1477 12.8288 14.7156C12.9909 14.4123 13.0831 14.0663 13.0831 13.6991C13.0831 12.5059 12.1124 11.5352 10.9192 11.5352Z" fill="#436CFB"/>
<path d="M21.9274 17.1606H20.6385C20.7699 17.5203 20.8417 17.9085 20.8417 18.3131V23.1846C20.8417 23.3532 20.8123 23.5152 20.7589 23.6657H22.8898C23.6858 23.6657 24.3333 23.0182 24.3333 22.2222V19.5665C24.3334 18.2399 23.2541 17.1606 21.9274 17.1606Z" fill="#436CFB"/>
<path d="M21.0808 11.5352C19.8876 11.5352 18.9169 12.5059 18.9169 13.6991C18.9169 14.0663 19.0091 14.4123 19.1712 14.7156C19.4022 15.1477 19.7754 15.4927 20.2281 15.6876C20.4899 15.8003 20.7782 15.863 21.0808 15.863C22.274 15.863 23.2447 14.8923 23.2447 13.6991C23.2447 12.5059 22.274 11.5352 21.0808 11.5352Z" fill="#436CFB"/>
</svg>
