<svg width="32" height="27" viewBox="0 0 32 27" fill="none" xmlns="http://www.w3.org/2000/svg">
<path d="M22.0466 26.4H2.50284C0.80909 26.4 -0.39716 24.75 0.12159 23.1375L2.17784 16.7125C2.84034 14.65 5.09659 13.5812 7.10909 14.3625C8.44659 14.8812 10.1653 15.2875 12.2716 15.2875C14.1403 15.2875 15.7091 14.9687 16.9716 14.5312C17.1716 15.9437 17.8153 17.3125 18.9028 18.3937C20.1466 19.6375 21.7903 20.3437 23.5466 20.3937L24.4278 23.1375C24.9466 24.75 23.7403 26.4 22.0466 26.4Z" fill="#FFB117"/>
<path d="M12.2778 12.8875C15.8366 12.8875 18.7216 10.0025 18.7216 6.44375C18.7216 2.88496 15.8366 0 12.2778 0C8.71906 0 5.83409 2.88496 5.83409 6.44375C5.83409 10.0025 8.71906 12.8875 12.2778 12.8875Z" fill="#FED98A"/>
<path d="M26.2653 17.65L27.8341 16.0812L30.7466 18.9937C31.1778 19.425 31.1778 20.1312 30.7466 20.5625C30.3153 20.9937 29.6091 20.9937 29.1778 20.5625L26.2653 17.65Z" fill="#F56961"/>
<path d="M19.7903 9.61248C17.6091 11.7875 17.6091 15.3375 19.7903 17.5125C21.9716 19.6937 25.5153 19.6875 27.6903 17.5125C29.8716 15.3312 29.8716 11.7875 27.6903 9.61248C25.5091 7.43748 21.9653 7.43123 19.7903 9.61248ZM26.1216 15.9375C24.8091 17.25 22.6778 17.25 21.3653 15.9375C20.0528 14.625 20.0528 12.4937 21.3653 11.175C22.6778 9.85623 24.8091 9.86248 26.1278 11.175C27.4466 12.4875 27.4341 14.625 26.1216 15.9375Z" fill="#FAB3B2"/>
<path d="M26.1216 15.9375C24.8091 17.25 22.6778 17.25 21.3653 15.9375C20.0528 14.625 20.0528 12.4938 21.3653 11.175C22.6778 9.85626 24.8091 9.86251 26.1278 11.175C27.4466 12.4875 27.4341 14.625 26.1216 15.9375Z" fill="white"/>
</svg>
