<svg width="20" height="20" viewBox="0 0 20 20" fill="none" xmlns="http://www.w3.org/2000/svg">
<path d="M8.34083 8.75016C10.1818 8.75016 11.6742 7.25778 11.6742 5.41683C11.6742 3.57588 10.1818 2.0835 8.34083 2.0835C6.49988 2.0835 5.0075 3.57588 5.0075 5.41683C5.0075 7.25778 6.49988 8.75016 8.34083 8.75016Z" fill="#436CFB"/>
<path d="M13.3808 11.817C13.3798 11.8824 13.3539 11.945 13.3083 11.992L9.95 15.367C9.71551 15.6012 9.58363 15.9189 9.58333 16.2503V17.667C9.58142 17.7339 9.55469 17.7978 9.50833 17.8462C9.48635 17.8706 9.45931 17.89 9.42909 17.9029C9.39887 17.9159 9.3662 17.9221 9.33333 17.9212H5C3.09167 17.9212 2.08333 16.9212 2.08333 15.0212C2.08333 12.8962 3.28333 10.4212 6.66667 10.4212H10C10.5985 10.3911 11.1969 10.4818 11.7596 10.688C12.3222 10.8942 12.8376 11.2115 13.275 11.6212C13.3317 11.6724 13.369 11.7415 13.3808 11.817Z" fill="#FFB117"/>
<path d="M16.6983 14.5676L12.9167 18.3335H10.8333V16.2501L14.5992 12.4676L16.6983 14.5676ZM18.09 12.0101L17.1567 11.0768C17.0005 10.9216 16.7893 10.8345 16.5692 10.8345C16.349 10.8345 16.1378 10.9216 15.9817 11.0768L15.1825 11.8851L17.2817 13.9843L18.09 13.1851C18.2452 13.029 18.3323 12.8178 18.3323 12.5976C18.3323 12.3775 18.2452 12.1663 18.09 12.0101Z" fill="#436CFB"/>
</svg>
