<svg width="24" height="26" viewBox="0 0 24 26" fill="none" xmlns="http://www.w3.org/2000/svg">
<path d="M13.0472 7.27539C12.1111 7.27539 11.3496 6.51385 11.3496 5.5778V0H2.66764C1.1967 0 0 1.1967 0 2.66764V22.1657C0 23.6366 1.1967 24.8333 2.66764 24.8333H16.2484C17.7193 24.8333 18.916 23.6366 18.916 22.1657V7.27539H13.0472ZM3.97721 17.4609H7.50432C7.90612 17.4609 8.23186 17.7867 8.23186 18.1885C8.23186 18.5903 7.90612 18.916 7.50432 18.916H3.97721C3.57542 18.916 3.24967 18.5903 3.24967 18.1885C3.24967 17.7867 3.57542 17.4609 3.97721 17.4609ZM3.24967 14.3083C3.24967 13.9065 3.57542 13.5807 3.97721 13.5807H14.6478C15.0496 13.5807 15.3753 13.9065 15.3753 14.3083C15.3753 14.7101 15.0496 15.0358 14.6478 15.0358H3.97721C3.57542 15.0358 3.24967 14.7101 3.24967 14.3083ZM14.6478 9.70052C15.0496 9.70052 15.3753 10.0263 15.3753 10.4281C15.3753 10.8299 15.0496 11.1556 14.6478 11.1556H3.97721C3.57542 11.1556 3.24967 10.8299 3.24967 10.4281C3.24967 10.0263 3.57542 9.70052 3.97721 9.70052H14.6478Z" fill="white"/>
<path d="M12.8046 5.57782C12.8046 5.71154 12.9134 5.82034 13.0472 5.82034H18.5917C18.458 5.57276 18.2858 5.34795 18.0817 5.1543L13.4049 0.729793C13.2256 0.56009 13.0236 0.416043 12.8047 0.301758V5.57782H12.8046Z" fill="white"/>
<circle cx="17.757" cy="20.0269" r="2.00269" fill="white"/>
<path d="M17.4235 15.3271C18.6259 15.3272 19.7543 15.7459 20.7194 16.4961C21.6817 17.2395 22.4764 18.3072 23.0377 19.6055L23.068 19.6738L23.0826 19.7471L22.401 19.8809L23.0826 19.748V19.751C23.0829 19.7524 23.0833 19.754 23.0836 19.7559C23.0843 19.7595 23.0856 19.7643 23.0865 19.7695C23.0883 19.7797 23.09 19.793 23.0924 19.8086C23.0972 19.8398 23.1039 19.8847 23.108 19.9355C23.112 19.9845 23.1154 20.0526 23.111 20.127C23.1072 20.1898 23.095 20.3165 23.0348 20.4512L23.0338 20.4502C21.9146 23.0329 19.8513 24.7265 17.4235 24.7266H17.4186C14.9929 24.7266 12.9265 23.0299 11.8082 20.4434L11.8092 20.4424C11.6912 20.1721 11.6971 19.8681 11.8063 19.6104L11.8082 19.6055C12.9269 17.0179 14.9937 15.3271 17.4186 15.3271H17.4235ZM17.4235 18.7793C16.7235 18.7793 16.1637 19.3419 16.1637 20.0273C16.164 20.7066 16.7225 21.2695 17.4235 21.2695C18.1183 21.2695 18.6781 20.7077 18.6783 20.0273C18.6783 19.3408 18.1174 18.7793 17.4235 18.7793Z" fill="white" stroke="#D95750" stroke-width="1.38889"/>
<path d="M18.6401 20.0258C18.6401 20.691 18.0931 21.2347 17.4239 21.2347C16.7498 21.2347 16.2027 20.691 16.2027 20.0258C16.2027 19.9433 16.2125 19.8656 16.2272 19.7879H16.2516C16.7938 19.7879 17.2334 19.3607 17.2529 18.8266C17.3066 18.8169 17.3653 18.8121 17.4239 18.8121C18.0931 18.8121 18.6401 19.3558 18.6401 20.0258Z" fill="white"/>
</svg>
